# xmcd
#
# Track frame offsets:
#	150
#	23022
#	43484
#	62894
#	70461
#	87508
#	97906
#	115439
#	124344
#	137583
#	144494
#	178433
#	194781
#	205263
#	223635
#	233234
#	240760
#	246223
#	259552
#	268083
#	286414
#
# Disc length: 3945 seconds
#
# Revision: 1
# Processed by: cddbd v1.5.1PL0 Copyright (c) Steve Scherf et al.
# Submitted via: CDex 1.50Beta5
#
DISCID=4f0f6715
DTITLE=No Plan - No Plan
DYEAR=2003
DGENRE=Pop
TTITLE0=We Are NO Plan
TTITLE1=楽屋王
TTITLE2=内P“Coco JAPAN”Remix
TTITLE3=その時、本当は…。(1)
TTITLE4=訳の分からないスポーツ実況
TTITLE5=内P軍団のテーマ
TTITLE6=出現！存在感のない怪獣
TTITLE7=今、思うコト。(1)
TTITLE8=前略、露天風呂の上より?芸人魂の詩?
TTITLE9=今、思うコト。(2)
TTITLE10=内村自宅実況中継?小さいテレビは存在するか?!?
TTITLE11=Comedians' Life?One Week?
TTITLE12=その時、本当は…。(2)
TTITLE13=F1緑町グランプリ
TTITLE14=ひとりぼっちのジングルベル
TTITLE15=今、思うコト。(3)
TTITLE16=その時、本当は…。(3)
TTITLE17=日本全国打ち上げ音頭
TTITLE18=内村秋好さん
TTITLE19=志なかば
TTITLE20=助っ人野郎のテーマ
EXTD=
EXTT0=
EXTT1=
EXTT2=
EXTT3=
EXTT4=
EXTT5=
EXTT6=
EXTT7=
EXTT8=
EXTT9=
EXTT10=
EXTT11=
EXTT12=
EXTT13=
EXTT14=
EXTT15=
EXTT16=
EXTT17=
EXTT18=
EXTT19=
EXTT20=
PLAYORDER=
